<svg width="24" height="24" viewBox="0 0 24 24" fill="none" xmlns="http://www.w3.org/2000/svg">
<path d="M11.9859 12.341C9.1609 12.341 6.8129 9.995 6.8129 7.219C6.8129 4.347 9.1609 2 11.9869 2C14.9089 2 17.1599 4.346 17.1599 7.219C17.1549 8.58205 16.6088 9.88733 15.6418 10.848C14.6748 11.8086 13.366 12.346 12.0029 12.342L11.9859 12.341ZM11.9859 5.017C10.7899 5.017 9.8799 6.022 9.8799 7.22C9.8799 8.416 10.7899 9.326 11.9869 9.326C13.2319 9.326 14.0939 8.416 14.0939 7.22C14.0949 6.021 13.2319 5.017 11.9859 5.017ZM14.0459 16.603L16.9689 19.428C17.5439 20.049 17.5439 20.959 16.9689 21.534C16.3469 22.155 15.3879 22.155 14.9089 21.534L11.9869 18.661L9.1609 21.534C8.8739 21.821 8.4899 21.964 8.0579 21.964C7.7229 21.964 7.3399 21.82 7.0039 21.534C6.4289 20.959 6.4289 20.049 7.0039 19.427L9.9739 16.602C8.90134 16.2844 7.87244 15.8346 6.9109 15.263C6.1919 14.88 6.0489 13.923 6.4319 13.204C6.9109 12.486 7.7729 12.295 8.5399 12.774C9.5785 13.4078 10.7717 13.7431 11.9884 13.7431C13.2051 13.7431 14.3983 13.4078 15.4369 12.774C16.2039 12.295 17.1129 12.486 17.5439 13.204C17.9759 13.923 17.7829 14.879 17.1119 15.263C16.2029 15.838 15.1489 16.269 14.0469 16.604L14.0459 16.603Z" fill="white"/>
</svg>
