<svg width="24" height="24" viewBox="0 0 24 24" fill="none" xmlns="http://www.w3.org/2000/svg">
<path d="M22.5 11.9343C22.5 11.8828 22.5 11.8242 22.4977 11.7562C22.4953 11.5664 22.4906 11.3531 22.4859 11.1257C22.4672 10.4718 22.4344 9.82026 22.3828 9.20619C22.3125 8.3601 22.2094 7.65463 22.0687 7.12494C21.9204 6.57217 21.6295 6.06803 21.2252 5.66291C20.8209 5.25778 20.3173 4.96587 19.7648 4.81635C19.1016 4.63823 17.8031 4.52807 15.975 4.4601C15.1055 4.42729 14.175 4.40619 13.2445 4.39448C12.9187 4.38979 12.6164 4.38745 12.3445 4.3851H11.6555C11.3836 4.38745 11.0813 4.38979 10.7555 4.39448C9.825 4.40619 8.89453 4.42729 8.025 4.4601C6.19687 4.53041 4.89609 4.64057 4.23516 4.81635C3.6825 4.96551 3.17876 5.25729 2.7744 5.66247C2.37004 6.06765 2.07928 6.57199 1.93125 7.12494C1.78828 7.65463 1.6875 8.3601 1.61719 9.20619C1.56562 9.82026 1.53281 10.4718 1.51406 11.1257C1.50703 11.3531 1.50469 11.5664 1.50234 11.7562C1.50234 11.8242 1.5 11.8828 1.5 11.9343V12.0656C1.5 12.1171 1.5 12.1757 1.50234 12.2437C1.50469 12.4335 1.50937 12.6468 1.51406 12.8742C1.53281 13.5281 1.56562 14.1796 1.61719 14.7937C1.6875 15.6398 1.79063 16.3453 1.93125 16.8749C2.23125 17.9976 3.1125 18.8835 4.23516 19.1835C4.89609 19.3617 6.19687 19.4718 8.025 19.5398C8.89453 19.5726 9.825 19.5937 10.7555 19.6054C11.0813 19.6101 11.3836 19.6124 11.6555 19.6148H12.3445C12.6164 19.6124 12.9187 19.6101 13.2445 19.6054C14.175 19.5937 15.1055 19.5726 15.975 19.5398C17.8031 19.4695 19.1039 19.3593 19.7648 19.1835C20.8875 18.8835 21.7687 17.9999 22.0687 16.8749C22.2117 16.3453 22.3125 15.6398 22.3828 14.7937C22.4344 14.1796 22.4672 13.5281 22.4859 12.8742C22.493 12.6468 22.4953 12.4335 22.4977 12.2437C22.4977 12.1757 22.5 12.1171 22.5 12.0656V11.9343ZM20.8125 12.0562C20.8125 12.1054 20.8125 12.1593 20.8102 12.2226C20.8078 12.4054 20.8031 12.607 20.7984 12.8249C20.782 13.4484 20.7492 14.0718 20.7 14.6507C20.6367 15.4054 20.5477 16.0242 20.4375 16.439C20.2922 16.9804 19.8656 17.4093 19.3266 17.5523C18.8344 17.6835 17.5945 17.789 15.9094 17.8523C15.0562 17.8851 14.1375 17.9062 13.2211 17.9179C12.9 17.9226 12.6023 17.9249 12.3352 17.9249H11.6648L10.7789 17.9179C9.8625 17.9062 8.94609 17.8851 8.09063 17.8523C6.40547 17.7867 5.16328 17.6835 4.67344 17.5523C4.13437 17.407 3.70781 16.9804 3.5625 16.439C3.45234 16.0242 3.36328 15.4054 3.3 14.6507C3.25078 14.0718 3.22031 13.4484 3.20156 12.8249C3.19453 12.607 3.19219 12.4031 3.18984 12.2226C3.18984 12.1593 3.1875 12.1031 3.1875 12.0562V11.9437C3.1875 11.8945 3.1875 11.8406 3.18984 11.7773C3.19219 11.5945 3.19688 11.3929 3.20156 11.1749C3.21797 10.5515 3.25078 9.92807 3.3 9.34916C3.36328 8.59448 3.45234 7.97573 3.5625 7.56088C3.70781 7.01948 4.13437 6.59057 4.67344 6.4476C5.16562 6.31635 6.40547 6.21088 8.09063 6.1476C8.94375 6.11479 9.8625 6.09369 10.7789 6.08198C11.1 6.07729 11.3977 6.07495 11.6648 6.07495H12.3352L13.2211 6.08198C14.1375 6.09369 15.0539 6.11479 15.9094 6.1476C17.5945 6.21323 18.8367 6.31635 19.3266 6.4476C19.8656 6.59291 20.2922 7.01948 20.4375 7.56088C20.5477 7.97573 20.6367 8.59448 20.7 9.34916C20.7492 9.92807 20.7797 10.5515 20.7984 11.1749C20.8055 11.3929 20.8078 11.5968 20.8102 11.7773C20.8102 11.8406 20.8125 11.8968 20.8125 11.9437V12.0562ZM9.91406 15.1406L15.3516 11.9765L9.91406 8.85932V15.1406Z" fill="white"/>
</svg>
